<?xml version="1.0" encoding="utf-8"?>
<!-- Generator: Adobe Illustrator 19.0.0, SVG Export Plug-In . SVG Version: 6.00 Build 0)  -->
<svg version="1.1" id="Calque_1" xmlns="http://www.w3.org/2000/svg" xmlns:xlink="http://www.w3.org/1999/xlink" x="0px" y="0px"
	 viewBox="0 0 420 340" style="enable-background:new 0 0 420 340;" xml:space="preserve">
<style type="text/css">
	.st0{fill:#2198FF;}
	.st1{fill:#475E75;}
</style>
<path class="st0" d="M222.4,207.1h24.6v-45.6h-24.6V207.1z M302.3,183c-7,0-12.9-2.4-17.7-7.2c-4-4-6.3-8.8-6.9-14.3h-25
	c0.8,12.3,5.6,23,14.4,31.9c9.7,9.7,21.4,14.6,35.2,14.6h112.6v-25H302.3z M284.6,140.4c4.8-4.9,10.7-7.4,17.7-7.4h49.5v-25h-49.5
	c-13.8,0-25.5,4.9-35.2,14.8c-9.2,9.3-14,20.3-14.5,33h24.9C278,149.9,280.4,144.8,284.6,140.4 M232.4,121.9
	c-9.7-9.9-21.3-14.8-34.9-14.8c-13.8,0-25.6,4.9-35.2,14.8c-9.7,9.8-14.6,21.6-14.6,35.2v50h24.9v-50c0-6.8,2.4-12.7,7.2-17.6
	c4.8-4.9,10.7-7.4,17.7-7.4c6.8,0,12.6,2.5,17.5,7.4c4.6,4.6,7,10.1,7.3,16.3h24.6C246.6,142.8,241.7,131.4,232.4,121.9"/>
<path class="st0" d="M107.9,87.2v54.4c0,9.6-3.4,17.7-10.1,24.3c-6.7,6.6-14.7,9.9-24,9.9c-9.6,0-17.7-3.3-24.2-9.9
	c-6.6-6.6-9.8-14.7-9.8-24.3v-73c-4.2-2.1-8.5-3.9-12.9-5.4c-6.8-2.3-13.9-4.2-21.1-5v83.4c0,18.9,6.6,35.1,19.9,48.4
	c13.2,13.3,29.3,20,48.2,20c18.5,0,34.5-6.6,47.7-20c13.3-13.3,19.9-29.5,19.9-48.4V87.2H107.9z M39.8,46.9V21.5H5.8v26
	c3.9-1.4,8-2.5,12.1-2.8C25.1,44.1,32.6,45.1,39.8,46.9"/>
<path id="XMLID_53_" class="st0" d="M359.2,23.8c-7.1,4.1-14.2,8.4-20.8,13.2c-2.1,1.6-4.2,3.2-6.2,4.9c-2.5,0.2-5-0.3-7.1-1.8
	c-2.5-1.9-5.1-3.7-7.8-5.4c-10.6-6.7-22.5-11.2-34.8-13.1c-15.9-2.5-32.2,0.1-47,6.2c-7.3,3-14.1,7-20.8,10.9
	c-5.4,3.1-10.7,6.4-15.6,10.2c-2.4,1.8-4.6,3.8-6.7,5.9c-1-0.2-1.9-0.5-2.9-1c-1.6-0.9-3-2.4-4.6-3.4c-4.7-3.1-9.8-5.5-15-7.7
	c-14.6-6.1-31.7-10.1-47.4-6.9c-6.9,1.4-13.5,4.3-19.6,7.7c-7.3,4-14.7,8.1-21.3,13.2c-3.9,2.9-7.6,6.2-10.7,9.9
	c-0.5-0.1-0.9-0.3-1.3-0.4c-2.9-1.1-5.6-4-8.4-5.6c-4.4-2.6-9.2-4.6-14-6.4c-12.3-4.6-26.5-8.2-39.6-5.5c-0.5,0.1-1.1,0.2-1.6,0.4
	v5.8c0.4,0,0.7,0,1.1,0c8.6,0.6,17.1,2.7,25.3,5.4c6.1,2.1,12,4.7,17.6,7.9c4.1,2.4,7.1,6.1,12.2,5.8c1.3-0.1,2.6-0.5,3.8-1.1
	c-0.2,0.5,2.6-1.1,8.3-5c2.8-1.6,5.1-3,6.9-5.9c2.1-3.4,5.3-6.2,8.3-8.8c2.2-1.9,4.5-3.7,6.8-5.3c0.1-0.1,0.2-0.2,0.4-0.3
	c0.9-0.4,1.8-0.8,2.7-1.2c6.9-2.9,14.4-4.6,21.9-4.6c15.5,0,31.2,4.9,44.9,11.9c3.7,1.9,7.2,4.1,10.5,6.7c2.5,2.1,6.1,2.1,9,1
	c1.5-0.6,2.9-1.6,4.4-2.4c3-1.7,6-3.4,8.9-5.2c2.4-1.5,4-4.4,6-6.4c3.2-3.1,6.7-5.9,10.4-8.5c0.6-0.4,1.2-0.8,1.9-1.2
	c3.1-1.5,6.2-2.9,9.4-4.1c7.4-2.8,15.1-4.5,23-5.4c23.4-2.5,45.3,5.8,64,19.5c2.3,1.7,5.4,1.6,8.1,1.2c2-0.3,3.7-1.2,5.4-2.2
	c0,0,0,0,0.1,0c-0.7,0.8,1.5-0.4,6.6-3.7c1.5-0.9,3-1.8,4.5-2.7c2.2-1.4,3.9-3.3,5.9-5c2.3-2,4.7-3.8,7.1-5.6c2.7-2,5.5-3.9,8.4-5.7
	c0.7-0.3,1.4-0.7,2-1c2.5-1.3,5.1-2.4,7.7-3.5c8.9-3.7,18.4-6.3,28-6.3c0.4,0,1.6-0.9,1.8-1c1.4-0.8,2.9-1.6,4.3-2.5
	c1.4-0.8,2.9-1.7,4.3-2.5c0.1-0.1,1.5-1.1,1.8-1.1C391.2,5.9,374.6,14.9,359.2,23.8"/>
<rect id="XMLID_51_" x="5.8" y="292.9" class="st1" width="153.1" height="2.1"/>
<rect id="XMLID_50_" x="255.8" y="292.9" class="st1" width="159.2" height="2.2"/>
<path id="XMLID_49_" class="st1" d="M40.2,258.5c0,2.8-0.4,5.2-1.2,7.2c-0.8,2-2,3.7-3.5,5c-1.5,1.3-3.4,2.3-5.5,2.9
	c-2.1,0.6-4.6,0.9-7.3,0.9c-1,0-2.1-0.1-3.2-0.2c-1.2-0.1-2.4-0.4-3.6-0.8c-1.2-0.4-2.4-0.9-3.6-1.6c-1.2-0.7-2.2-1.5-3.2-2.6
	c-1.1-1.3-2-2.8-2.5-4.5c-0.5-1.7-0.8-3.7-0.9-5.8v-28.3h9.1v27.7c0,1.5,0.2,2.8,0.6,3.9c0.4,1.1,0.9,2,1.6,2.6
	c0.7,0.7,1.5,1.2,2.4,1.5c0.9,0.3,1.9,0.5,2.9,0.5c3.1,0,5.3-0.7,6.6-2.1c1.3-1.4,2-3.4,2-6v-28.1h9.1V258.5z"/>
<polygon id="XMLID_47_" class="st1" points="81.6,230.8 89.8,230.8 89.8,273.5 81,273.5 63.6,243 63.5,243 63.5,273.5 55.2,273.5 
	55.2,230.8 64.6,230.8 81.4,260.5 81.6,260.5 "/>
<rect id="XMLID_46_" x="104.4" y="230.8" class="st1" width="8.9" height="42.7"/>
<polygon id="XMLID_45_" class="st1" points="153,230.8 162.2,230.8 147.8,273.5 139.3,273.5 125,230.8 134.5,230.8 143.6,263.1 
	143.7,263.1 "/>
<polygon id="XMLID_44_" class="st1" points="205.8,238.3 183.3,238.3 183.3,247.3 204,247.3 204,254.9 183.3,254.9 183.3,265.9 
	206.8,265.9 206.8,273.5 174.6,273.5 174.6,230.8 205.8,230.8 "/>
<path class="st1" d="M239.9,249.6c2.3,0,4.1-0.4,5.2-1.3c1.1-0.9,1.7-2.4,1.7-4.5c0-0.6-0.1-1.2-0.2-1.8c-0.2-0.7-0.5-1.3-0.9-1.8
	c-0.5-0.6-1.1-1-1.9-1.4c-0.8-0.4-1.9-0.6-3.2-0.6h-11.1v11.4H239.9z M220.8,230.8h21.5c2.8,0,5.1,0.5,6.9,1.4
	c1.7,0.9,3.1,2,4.1,3.3c1,1.3,1.6,2.6,2,4c0.3,1.4,0.5,2.5,0.5,3.4c0,2.4-0.6,4.5-1.7,6.3c-1.1,1.8-2.8,3.1-4.9,3.8
	c0.9,0.4,1.6,0.8,2.3,1.2c0.7,0.4,1.2,1,1.7,1.8c0.5,0.8,0.8,1.8,1,3c0.2,1.2,0.4,2.8,0.4,4.8c0,1.5,0,2.8,0,3.9
	c0,1,0.1,1.9,0.2,2.5c0.1,0.6,0.3,1.1,0.6,1.4c0.3,0.3,0.6,0.6,1.1,0.7v1.1h-9.8c-0.3-1-0.6-2.2-0.7-3.4c-0.2-1.2-0.2-3-0.2-5.2
	c0-1.5-0.1-2.7-0.1-3.7c-0.1-1-0.4-1.8-0.8-2.5c-0.5-0.7-1.1-1.1-2.1-1.4c-0.9-0.3-2.2-0.4-3.9-0.4h-9.2v16.7h-8.7V230.8z"/>
<path id="XMLID_41_" class="st1" d="M276.7,260.3c0,0.6,0.1,1.3,0.3,2.1c0.2,0.8,0.6,1.5,1.3,2.3c0.6,0.7,1.5,1.3,2.7,1.8
	c1.2,0.5,2.7,0.7,4.7,0.7c1.1,0,2.1-0.1,3.2-0.2c1-0.2,2-0.4,2.8-0.8c0.9-0.4,1.5-1,2.1-1.7c0.5-0.7,0.8-1.6,0.8-2.8
	c0-0.8-0.2-1.5-0.6-2.1c-0.4-0.6-0.9-1-1.6-1.4c-0.7-0.4-1.5-0.7-2.5-1c-0.9-0.3-2-0.6-3.1-0.8l-4.6-1.1c-1.7-0.4-3.4-0.8-5-1.3
	c-1.6-0.5-3-1.2-4.3-2c-1.2-0.9-2.3-2.1-3-3.5c-0.8-1.4-1.2-3.3-1.2-5.7c0-0.8,0.1-1.7,0.3-2.6c0.2-1,0.5-1.9,0.9-2.9
	c0.4-1,1-1.9,1.8-2.9c0.8-0.9,1.8-1.7,3-2.4c1.2-0.7,2.7-1.3,4.4-1.7c1.7-0.4,3.7-0.7,6-0.7c3.2,0,5.9,0.5,8.1,1.4
	c2.1,1,3.8,2.1,5.1,3.5c1.3,1.4,2.2,2.9,2.7,4.5c0.5,1.6,0.8,3.1,0.8,4.4h-8.5c-0.1-0.5-0.2-1.1-0.4-1.8c-0.2-0.7-0.6-1.4-1.2-2.1
	c-0.6-0.7-1.5-1.3-2.6-1.8c-1.1-0.5-2.7-0.7-4.6-0.7c-0.8,0-1.7,0.1-2.6,0.3c-0.9,0.2-1.7,0.5-2.4,0.9c-0.7,0.4-1.3,0.9-1.7,1.6
	c-0.5,0.7-0.7,1.5-0.7,2.4c0,0.8,0.1,1.5,0.4,2c0.3,0.5,0.7,1,1.1,1.3c0.5,0.3,0.9,0.6,1.5,0.7c0.5,0.2,1,0.3,1.4,0.4l10.4,2.6
	c1.5,0.4,2.9,0.8,4.2,1.3c1.3,0.5,2.5,1.2,3.5,2.1c1,0.9,1.8,2,2.5,3.3c0.6,1.3,0.9,2.9,0.9,4.8c0,2.1-0.3,4-1,5.5
	c-0.6,1.5-1.5,2.8-2.5,3.8c-1,1-2.2,1.9-3.5,2.5c-1.3,0.6-2.5,1.1-3.8,1.4c-1.2,0.3-2.4,0.5-3.5,0.6c-1.1,0.1-1.9,0.1-2.5,0.1
	c-3.9,0-7-0.5-9.4-1.5c-2.4-1-4.2-2.2-5.5-3.7c-1.3-1.4-2.2-3-2.6-4.7c-0.4-1.7-0.6-3.1-0.6-4.5H276.7z"/>
<rect id="XMLID_39_" x="315.9" y="230.8" class="st1" width="8.9" height="42.7"/>
<polygon id="XMLID_38_" class="st1" points="357.8,273.5 349,273.5 349,238.3 336.1,238.3 336.1,230.8 370.7,230.8 370.7,238.3 
	357.8,238.3 "/>
<path class="st1" d="M382.7,230.8v42.7H415v-7.5h-23.6v-11.1h20.7v-7.5h-20.7v-9H414v-7.5H382.7z M400.1,217.8l-5.6,8.7h6l8.7-8.7
	H400.1z"/>
<path class="st1" d="M180.6,294.3c0,0.7,0.1,1.3,0.2,1.9c0.2,0.6,0.4,1.1,0.8,1.6c0.3,0.4,0.8,0.8,1.3,1c0.5,0.2,1.1,0.4,1.8,0.4
	c0.4,0,0.9-0.1,1.3-0.2c0.5-0.1,0.9-0.4,1.4-0.7c0.4-0.3,0.8-0.8,1-1.3c0.3-0.6,0.4-1.3,0.4-2.1c0-0.5,0-1.1-0.1-1.7
	c-0.1-0.6-0.3-1.2-0.5-1.8c-0.3-0.5-0.7-1-1.2-1.4c-0.5-0.4-1.3-0.5-2.2-0.5c-1,0-1.8,0.2-2.3,0.5c-0.6,0.3-1,0.8-1.3,1.3
	c-0.3,0.5-0.4,1-0.5,1.6C180.7,293.4,180.6,293.9,180.6,294.3 M191.5,300.7h-2.4V299H189c-0.3,0.4-0.6,0.8-0.9,1.1
	c-0.3,0.3-0.7,0.5-1.1,0.6c-0.4,0.2-0.8,0.3-1.2,0.3c-0.4,0.1-0.8,0.1-1.2,0.1c-1.3,0-2.4-0.2-3.2-0.7c-0.9-0.5-1.5-1-2.1-1.7
	c-0.5-0.7-0.9-1.5-1.1-2.3c-0.2-0.8-0.3-1.6-0.3-2.4c0-0.9,0.1-1.7,0.4-2.5c0.3-0.8,0.7-1.4,1.2-2c0.5-0.6,1.2-1,2-1.4
	c0.8-0.3,1.7-0.5,2.7-0.5c0.7,0,1.3,0.1,1.8,0.2c0.5,0.2,0.9,0.3,1.3,0.6c0.4,0.2,0.7,0.5,0.9,0.7c0.2,0.3,0.4,0.5,0.6,0.6h0.1v-6.5
	h2.6V300.7z"/>
<path class="st1" d="M205.3,293.4c0-0.5-0.1-1-0.3-1.4c-0.2-0.5-0.4-0.9-0.7-1.2c-0.3-0.3-0.8-0.6-1.3-0.8c-0.5-0.2-1.2-0.3-2-0.3
	c-0.6,0-1.1,0.1-1.6,0.3c-0.5,0.2-1,0.5-1.3,0.8s-0.7,0.8-0.9,1.2c-0.2,0.5-0.3,0.9-0.3,1.4H205.3z M207.7,296.7
	c0,0.1-0.1,0.4-0.2,0.6c-0.1,0.3-0.3,0.6-0.5,0.9c-0.2,0.3-0.5,0.7-0.8,1c-0.3,0.3-0.7,0.6-1.2,0.9c-0.2,0.1-0.4,0.2-0.6,0.3
	c-0.2,0.1-0.5,0.2-0.8,0.3c-0.3,0.1-0.7,0.1-1.2,0.2c-0.4,0.1-1,0.1-1.6,0.1c-1.1,0-2-0.2-2.9-0.5c-0.8-0.3-1.6-0.8-2.1-1.3
	c-0.6-0.6-1-1.2-1.3-2c-0.3-0.8-0.5-1.6-0.5-2.6c0-1,0.1-1.9,0.4-2.8c0.3-0.9,0.7-1.6,1.3-2.3c0.6-0.6,1.4-1.1,2.3-1.5
	c0.9-0.4,2-0.5,3.3-0.5c1.1,0,2.1,0.2,2.9,0.5c0.8,0.3,1.5,0.8,2,1.5c0.5,0.6,1,1.4,1.2,2.4c0.3,0.9,0.4,1.9,0.4,3.1h-11.1
	c0,1.3,0.4,2.4,1.1,3.1c0.7,0.7,1.8,1.1,3.3,1.1c0.6,0,1.1-0.1,1.6-0.3c0.5-0.2,0.9-0.4,1.2-0.6c0.3-0.3,0.6-0.5,0.8-0.8
	c0.2-0.3,0.3-0.5,0.3-0.8H207.7z"/>
<rect id="XMLID_30_" x="218.6" y="283.3" class="st1" width="2.6" height="17.5"/>
<path class="st1" d="M234,294.2c-0.1,0.1-0.2,0.1-0.4,0.2c-0.2,0.1-0.4,0.1-0.7,0.2c-0.3,0.1-0.7,0.1-1.2,0.2
	c-0.5,0.1-1.1,0.2-1.9,0.2c-0.3,0-0.7,0.1-1,0.2c-0.4,0.1-0.7,0.2-1.1,0.3c-0.3,0.1-0.6,0.3-0.8,0.6c-0.2,0.3-0.3,0.6-0.3,1
	c0,0.7,0.2,1.2,0.7,1.6c0.4,0.4,1.1,0.6,2.1,0.6c0.6,0,1.2-0.1,1.7-0.2c0.6-0.2,1.1-0.4,1.5-0.6c0.4-0.3,0.8-0.6,1.1-1
	c0.3-0.4,0.4-0.8,0.4-1.2V294.2z M224.7,291.9c0-0.8,0.2-1.4,0.5-1.9c0.3-0.5,0.7-1,1.3-1.3c0.5-0.3,1.2-0.6,2-0.7
	c0.8-0.2,1.6-0.2,2.5-0.2c0.2,0,0.5,0,0.8,0c0.4,0,0.8,0.1,1.2,0.2c0.4,0.1,0.9,0.2,1.3,0.4c0.4,0.2,0.8,0.4,1.2,0.6
	c0.3,0.3,0.6,0.6,0.9,1c0.2,0.4,0.3,0.9,0.3,1.4v7.3c0,0.5,0.3,0.8,0.8,0.8c0.1,0,0.2,0,0.4,0c0.1,0,0.3,0,0.5-0.1v1.6
	c-0.2,0-0.4,0.1-0.6,0.2c-0.2,0.1-0.5,0.1-0.8,0.1c-0.6,0-1-0.1-1.4-0.2c-0.3-0.1-0.6-0.3-0.8-0.4c-0.2-0.2-0.3-0.4-0.4-0.6
	c-0.1-0.2-0.1-0.5-0.1-0.7c-0.3,0.2-0.5,0.5-0.9,0.7c-0.3,0.2-0.7,0.5-1.2,0.7c-0.4,0.2-1,0.4-1.5,0.5c-0.6,0.1-1.2,0.2-2,0.2
	c-0.7,0-1.3-0.1-1.9-0.3c-0.6-0.2-1.1-0.4-1.5-0.8c-0.4-0.3-0.8-0.7-1-1.2c-0.2-0.4-0.3-0.9-0.3-1.5c0-0.3,0-0.6,0.1-1
	c0.1-0.4,0.3-0.8,0.6-1.2c0.3-0.4,0.8-0.8,1.4-1.1c0.6-0.3,1.5-0.5,2.5-0.7l4.2-0.4c0.2,0,0.3,0,0.5-0.1c0.2,0,0.3-0.1,0.4-0.2
	c0.1-0.1,0.2-0.2,0.3-0.4c0.1-0.2,0.1-0.4,0.1-0.8c0-1.4-1.2-2.1-3.6-2.1c-0.7,0-1.3,0.1-1.8,0.2c-0.4,0.2-0.8,0.4-1,0.6
	c-0.2,0.3-0.4,0.5-0.5,0.8c-0.1,0.3-0.2,0.5-0.2,0.8H224.7z"/>
<polygon id="XMLID_26_" class="st1" points="23,310.2 23,327.7 23,327.7 10,310.2 5.8,310.2 5.8,331.9 9.2,331.9 9.2,314.4 
	9.3,314.4 22.5,331.9 26.4,331.9 26.4,310.2 "/>
<path class="st1" d="M52.3,321.1c0-1.3-0.2-2.4-0.6-3.5c-0.4-1.1-1-2-1.8-2.8c-0.8-0.8-1.7-1.4-2.9-1.8c-1.1-0.4-2.4-0.7-3.8-0.7
	c-1.4,0-2.7,0.2-3.8,0.7s-2.1,1.1-2.8,1.8c-0.8,0.8-1.4,1.7-1.8,2.8c-0.4,1.1-0.6,2.3-0.6,3.5c0,1.3,0.2,2.4,0.6,3.5
	c0.4,1.1,1,2,1.8,2.8c0.8,0.8,1.7,1.4,2.8,1.8c1.1,0.4,2.4,0.7,3.8,0.7c1.4,0,2.7-0.2,3.8-0.7c1.1-0.4,2.1-1.1,2.9-1.8
	c0.8-0.8,1.4-1.7,1.8-2.8S52.3,322.3,52.3,321.1 M55.9,321.1c0,0.8-0.1,1.6-0.3,2.5c-0.2,0.9-0.5,1.7-0.9,2.6
	c-0.4,0.8-0.9,1.7-1.6,2.4c-0.6,0.8-1.4,1.4-2.4,2c-0.9,0.6-2,1.1-3.3,1.4c-1.3,0.3-2.7,0.5-4.3,0.5c-1.6,0-3-0.2-4.3-0.5
	c-1.3-0.3-2.3-0.8-3.3-1.4c-0.9-0.6-1.7-1.3-2.4-2c-0.6-0.8-1.2-1.6-1.6-2.4c-0.4-0.8-0.7-1.7-0.9-2.6c-0.2-0.9-0.3-1.7-0.3-2.5
	c0-0.8,0.1-1.6,0.3-2.5c0.2-0.9,0.5-1.7,0.9-2.6c0.4-0.8,0.9-1.6,1.6-2.4c0.6-0.8,1.4-1.4,2.4-2c0.9-0.6,2-1.1,3.3-1.4
	c1.3-0.3,2.7-0.5,4.3-0.5c1.6,0,3,0.2,4.3,0.5c1.3,0.3,2.4,0.8,3.3,1.4c0.9,0.6,1.7,1.3,2.4,2c0.6,0.8,1.2,1.6,1.6,2.4
	c0.4,0.8,0.7,1.7,0.9,2.6C55.8,319.4,55.9,320.3,55.9,321.1"/>
<path id="XMLID_23_" class="st1" d="M80.6,310.2v14.1c0,1.1-0.2,2.2-0.6,3.2c-0.4,1-1.1,1.9-1.9,2.6c-0.9,0.7-1.9,1.3-3.3,1.8
	c-1.3,0.4-2.9,0.6-4.6,0.6c-1.7,0-3.2-0.2-4.5-0.6c-1.3-0.4-2.3-1-3.1-1.7c-0.8-0.7-1.4-1.6-1.8-2.5c-0.4-0.9-0.6-1.9-0.6-2.9v-14.5
	h3.5v13.7c0,1.2,0.2,2.2,0.6,2.9c0.4,0.8,0.9,1.4,1.5,1.8c0.6,0.5,1.3,0.8,2.1,1c0.8,0.2,1.6,0.3,2.4,0.3c0.8,0,1.6-0.1,2.4-0.3
	c0.8-0.2,1.6-0.5,2.2-0.9c0.7-0.4,1.2-1,1.6-1.8s0.6-1.7,0.6-2.9v-13.7H80.6z"/>
<polygon id="XMLID_21_" class="st1" points="102.8,310.2 95.5,328.7 95.4,328.7 88,310.2 84.1,310.2 93.6,331.9 97.3,331.9 
	106.8,310.2 "/>
<polygon id="XMLID_20_" class="st1" points="110.6,310.2 110.6,331.9 129.8,331.9 129.8,329.3 114.1,329.3 114.1,322.1 128.3,322.1 
	128.3,319.5 114.1,319.5 114.1,312.8 129.5,312.8 129.5,310.2 "/>
<polygon id="XMLID_19_" class="st1" points="134.3,310.2 134.3,331.9 151,331.9 151,329.3 137.9,329.3 137.9,310.2 "/>
<polygon id="XMLID_18_" class="st1" points="154.4,310.2 154.4,331.9 171.1,331.9 171.1,329.3 158,329.3 158,310.2 "/>
<polygon id="XMLID_17_" class="st1" points="174.9,310.2 174.9,331.9 194.1,331.9 194.1,329.3 178.4,329.3 178.4,322.1 192.6,322.1 
	192.6,319.5 178.4,319.5 178.4,312.8 193.8,312.8 193.8,310.2 "/>
<rect id="XMLID_16_" x="197.5" y="322.2" class="st1" width="8.9" height="2.7"/>
<path id="XMLID_15_" class="st1" d="M228.9,316.7c-0.2-0.9-0.6-1.7-1.2-2.3c-0.6-0.6-1.2-1.1-1.9-1.4c-0.7-0.3-1.4-0.5-2.1-0.7
	c-0.7-0.1-1.4-0.2-2.1-0.2c-1.2,0-2.3,0.2-3.3,0.5c-1,0.4-1.9,0.9-2.7,1.6c-0.8,0.7-1.4,1.6-1.8,2.7c-0.4,1.1-0.7,2.3-0.7,3.8
	c0,1.3,0.1,2.5,0.4,3.6c0.3,1.1,0.8,2.1,1.4,2.9c0.7,0.8,1.6,1.4,2.7,1.9c1.1,0.5,2.5,0.7,4.1,0.7c0.6,0,1.2-0.1,1.9-0.2
	c0.7-0.2,1.4-0.4,2.1-0.9c0.7-0.4,1.4-1,2-1.8c0.6-0.8,1-1.8,1.3-3.1h3.4c-0.2,1.4-0.6,2.5-1.2,3.5c-0.6,0.9-1.2,1.7-2,2.4
	c-0.7,0.6-1.5,1.1-2.3,1.5c-0.8,0.4-1.6,0.6-2.4,0.8c-0.8,0.2-1.5,0.3-2.1,0.3c-0.6,0-1.1,0.1-1.4,0.1c-1.5,0-2.9-0.2-4.3-0.6
	c-1.4-0.4-2.6-1.1-3.7-2c-1.1-0.9-2-2.1-2.6-3.6c-0.7-1.5-1-3.2-1-5.3c0-1.7,0.3-3.2,0.8-4.6c0.6-1.4,1.3-2.6,2.4-3.6
	c1-1,2.3-1.8,3.8-2.3c1.5-0.6,3.2-0.8,5.1-0.8c1.7,0,3.1,0.2,4.4,0.6c1.3,0.4,2.4,0.9,3.2,1.6c0.9,0.7,1.6,1.4,2.1,2.3
	c0.5,0.9,0.8,1.7,0.9,2.6H228.9z"/>
<path class="st1" d="M246.1,313.4L246.1,313.4l3.9,9.6H242L246.1,313.4z M244.3,310.2l-9.8,21.7h3.6l2.7-6.3h10.4l2.6,6.3h3.8
	l-9.4-21.7H244.3z"/>
<polygon id="XMLID_11_" class="st1" points="260.9,310.2 260.9,331.9 277.6,331.9 277.6,329.3 264.4,329.3 264.4,310.2 "/>
<path class="st1" d="M281.4,310.2v21.7h19.2v-2.6h-15.7v-7.3h14.2v-2.6h-14.2v-6.7h15.4v-2.6H281.4z M291.9,303.8l-3.2,4.3h2.4
	l4.7-4.3H291.9z"/>
<path class="st1" d="M308.8,329.4h6.8c2.3,0,4.1-0.7,5.5-2.2c1.4-1.4,2-3.5,2-6.3c0-2.7-0.7-4.8-2.1-6.2c-1.4-1.4-3.3-2.1-5.7-2.1
	h-6.5V329.4z M305.3,310.2h10.5c1.7,0,3.2,0.3,4.6,0.8c1.3,0.5,2.5,1.2,3.4,2.2c0.9,0.9,1.7,2,2.2,3.3c0.5,1.3,0.8,2.7,0.8,4.3
	c0,1.2-0.2,2.5-0.5,3.8c-0.3,1.3-1,2.5-1.8,3.6c-0.9,1.1-2,2-3.4,2.7c-1.4,0.7-3.2,1.1-5.3,1.1h-10.4V310.2z"/>
<path class="st1" d="M351.5,321.1c0-1.3-0.2-2.4-0.6-3.5c-0.4-1.1-1-2-1.8-2.8c-0.8-0.8-1.7-1.4-2.9-1.8c-1.1-0.4-2.4-0.7-3.8-0.7
	c-1.4,0-2.7,0.2-3.8,0.7c-1.1,0.4-2.1,1.1-2.8,1.8c-0.8,0.8-1.4,1.7-1.8,2.8c-0.4,1.1-0.6,2.3-0.6,3.5c0,1.3,0.2,2.4,0.6,3.5
	c0.4,1.1,1,2,1.8,2.8c0.8,0.8,1.7,1.4,2.8,1.8c1.1,0.4,2.4,0.7,3.8,0.7c1.4,0,2.7-0.2,3.8-0.7c1.1-0.4,2.1-1.1,2.9-1.8
	c0.8-0.8,1.4-1.7,1.8-2.8S351.5,322.3,351.5,321.1 M355.2,321.1c0,0.8-0.1,1.6-0.3,2.5c-0.2,0.9-0.5,1.7-0.9,2.6
	c-0.4,0.8-0.9,1.7-1.6,2.4c-0.6,0.8-1.4,1.4-2.4,2c-0.9,0.6-2,1.1-3.3,1.4c-1.3,0.3-2.7,0.5-4.3,0.5c-1.6,0-3-0.2-4.3-0.5
	c-1.3-0.3-2.4-0.8-3.3-1.4c-0.9-0.6-1.7-1.3-2.4-2c-0.6-0.8-1.2-1.6-1.6-2.4c-0.4-0.8-0.7-1.7-0.9-2.6c-0.2-0.9-0.3-1.7-0.3-2.5
	c0-0.8,0.1-1.6,0.3-2.5c0.2-0.9,0.5-1.7,0.9-2.6c0.4-0.8,0.9-1.6,1.6-2.4c0.6-0.8,1.4-1.4,2.4-2c0.9-0.6,2-1.1,3.3-1.4
	c1.3-0.3,2.7-0.5,4.3-0.5c1.6,0,3,0.2,4.3,0.5c1.3,0.3,2.4,0.8,3.3,1.4c0.9,0.6,1.7,1.3,2.4,2c0.6,0.8,1.2,1.6,1.6,2.4
	c0.4,0.8,0.7,1.7,0.9,2.6C355.1,319.4,355.2,320.3,355.2,321.1"/>
<polygon id="XMLID_3_" class="st1" points="376.5,310.2 376.5,327.7 376.5,327.7 363.5,310.2 359.3,310.2 359.3,331.9 362.7,331.9 
	362.7,314.4 362.8,314.4 376,331.9 379.9,331.9 379.9,310.2 "/>
<rect id="XMLID_2_" x="386" y="310.2" class="st1" width="3.5" height="21.7"/>
<polygon id="XMLID_1_" class="st1" points="395.8,310.2 395.8,331.9 415,331.9 415,329.3 399.3,329.3 399.3,322.1 413.5,322.1 
	413.5,319.5 399.3,319.5 399.3,312.8 414.7,312.8 414.7,310.2 "/>
</svg>
